<?xml version="1.0" standalone="no"?>
<!DOCTYPE svg PUBLIC "-//W3C//DTD SVG 20010904//EN"
 "http://www.w3.org/TR/2001/REC-SVG-20010904/DTD/svg10.dtd">
<svg version="1.0" xmlns="http://www.w3.org/2000/svg"
 width="70.000000pt" height="70.000000pt" viewBox="0 0 70.000000 70.000000"
 preserveAspectRatio="xMidYMid meet">
<metadata>
Created by potrace 1.11, written by Peter Selinger 2001-2013
</metadata>
<g transform="translate(0.000000,70.000000) scale(0.100000,-0.100000)"
fill="#000000" stroke="none">
<path d="M225 619 c-38 -4 -74 -8 -80 -10 -5 -1 -22 1 -37 5 -15 4 -36 5 -46
1 -25 -7 -42 -53 -31 -83 5 -13 4 -33 -2 -50 -6 -15 -11 -72 -11 -127 1 -94 3
-122 17 -164 3 -10 1 -29 -3 -42 -18 -48 29 -94 75 -73 10 4 22 6 26 5 31 -6
164 -15 222 -14 71 2 284 10 297 12 12 2 26 58 17 72 -4 8 -4 33 1 55 14 62
18 170 8 227 -5 29 -9 78 -9 110 1 51 -2 59 -23 69 -15 6 -36 7 -53 3 -15 -5
-31 -8 -34 -7 -79 15 -238 20 -334 11z m313 -39 c30 -5 51 -5 59 2 24 19 46 1
39 -33 -3 -17 -1 -51 5 -77 13 -59 13 -216 -1 -262 -5 -19 -7 -49 -4 -67 5
-25 2 -34 -10 -39 -9 -3 -22 -2 -29 4 -8 7 -28 7 -62 1 -70 -14 -288 -14 -359
0 -43 8 -63 8 -72 0 -25 -20 -47 -2 -40 33 3 17 1 49 -5 72 -14 52 -14 196 0
258 6 26 8 60 5 77 -7 34 15 52 40 32 7 -6 20 -9 28 -6 53 20 308 24 406 5z"/>
<path d="M96 357 c1 -119 2 -126 12 -110 4 6 7 43 7 82 0 39 3 71 6 71 4 0 30
-36 58 -80 29 -44 56 -80 61 -80 6 0 10 46 10 110 0 67 -4 110 -10 110 -11 0
-12 -9 -11 -105 l1 -69 -34 49 c-19 28 -46 67 -60 88 -14 20 -29 37 -33 37 -5
0 -8 -46 -7 -103z"/>
<path d="M289 378 c-1 -27 -1 -96 0 -121 1 -10 5 -16 10 -13 5 3 9 40 9 81 0
41 -4 75 -9 75 -5 0 -9 -10 -10 -22z"/>
<path d="M362 377 c-30 -32 -29 -87 1 -115 25 -23 62 -28 87 -12 16 11 9 13
-31 10 -33 -2 -59 24 -59 58 1 41 22 62 64 62 22 0 35 4 31 10 -12 19 -71 11
-93 -13z"/>
<path d="M495 380 c-28 -31 -25 -97 4 -121 25 -21 67 -25 91 -9 16 10 14 11
-40 13 -26 2 -37 8 -47 27 l-12 25 60 3 c50 2 60 6 55 18 -3 9 -6 19 -6 24 0
18 -33 40 -59 40 -15 0 -36 -9 -46 -20z m75 -4 c0 -2 3 -11 6 -20 5 -13 -2
-16 -35 -16 -42 0 -50 7 -29 28 11 11 58 17 58 8z"/>
</g>
</svg>
