<svg width="94" height="80" viewBox="0 0 94 80" fill="none" xmlns="http://www.w3.org/2000/svg">
<g clip-path="url(#clip0)">
<path d="M64.8999 74.3173L62.5438 57.8862V55.6094C62.5438 53.6547 60.9536 52.0702 58.992 52.0702H50.7045V8.42074C50.7045 6.4661 49.1144 4.88159 47.1528 4.88159C45.1911 4.88159 43.601 6.4661 43.601 8.42074V52.0702H35.3135C33.3519 52.0702 31.7617 53.6547 31.7617 55.6094V57.8862L29.4057 74.3173C29.3129 74.9622 29.7622 75.56 30.4095 75.6526C30.4653 75.6606 30.5216 75.6645 30.5778 75.6645H63.7277C64.3815 75.6647 64.9116 75.1365 64.9118 74.485C64.9119 74.4289 64.9079 74.3729 64.8999 74.3173ZM45.969 8.42074C45.969 7.76924 46.4991 7.24102 47.1529 7.24102C47.8067 7.24102 48.3368 7.76924 48.3368 8.42074V47.3514H45.969V8.42074ZM45.969 49.7108H48.3368V52.0702H45.969V49.7108ZM34.1297 55.6094C34.1297 54.9579 34.6598 54.4297 35.3137 54.4297H58.9921C59.646 54.4297 60.1761 54.9579 60.1761 55.6094V56.7891H34.1297V55.6094V55.6094ZM57.8081 73.3051V66.2268H55.4402V73.3051H53.0724V70.9457H50.7045V73.3051H43.601V69.766H41.2331V73.3051H38.8653V66.2268H36.4974V73.3051H31.9429L33.9721 59.1485H60.3334L62.3626 73.3051H57.8081Z" fill="#116751"/>
<path d="M57.8082 61.5079H55.4403V63.8674H57.8082V61.5079Z" fill="#116751"/>
</g>
<path d="M11.1759 2.92845C40.1256 0.108074 57.8647 0.608629 82.7114 2.96268C87.4186 3.40866 91.1473 7.14031 91.5685 11.8445C93.4519 32.8825 93.4938 47.5648 91.5934 68.3209C91.1635 73.0155 87.4264 76.7297 82.7253 77.1551C56.2004 79.5556 38.1113 79.6639 11.2921 77.1833C6.58521 76.748 2.85767 73.0062 2.44011 68.2976C0.619796 47.771 0.435322 33.1179 2.40414 11.7263C2.8323 7.07426 6.52101 3.38195 11.1759 2.92845Z" stroke="#116751" stroke-width="2"/>
<defs>
<clipPath id="clip0">
<rect width="71.0355" height="70.7829" fill="white" transform="translate(11.6351 4.88159)"/>
</clipPath>
</defs>
</svg>
