<svg width="94" height="80" viewBox="0 0 94 80" fill="none" xmlns="http://www.w3.org/2000/svg">
<path d="M43.3255 33.599C43.5793 33.599 43.8227 33.4986 44.0021 33.3198C44.1816 33.1409 44.2824 32.8984 44.2824 32.6456C44.2824 32.3927 44.1816 32.1502 44.0021 31.9714C43.8227 31.7926 43.5793 31.6921 43.3255 31.6921H41.4119C41.1581 31.6921 40.9147 31.7926 40.7353 31.9714C40.5558 32.1502 40.455 32.3927 40.455 32.6456C40.455 32.8984 40.5558 33.1409 40.7353 33.3198C40.9147 33.4986 41.1581 33.599 41.4119 33.599H43.3255Z" fill="#116751"/>
<path d="M50.9802 33.599H52.8939C53.1477 33.599 53.391 33.4986 53.5705 33.3198C53.7499 33.1409 53.8507 32.8984 53.8507 32.6456C53.8507 32.3927 53.7499 32.1502 53.5705 31.9714C53.391 31.7926 53.1477 31.6921 52.8939 31.6921H50.9802C50.7264 31.6921 50.4831 31.7926 50.3036 31.9714C50.1242 32.1502 50.0234 32.3927 50.0234 32.6456C50.0234 32.8984 50.1242 33.1409 50.3036 33.3198C50.4831 33.4986 50.7264 33.599 50.9802 33.599Z" fill="#116751"/>
<path d="M71.0738 50.7608C72.5959 50.7592 74.0552 50.156 75.1315 49.0835C76.2078 48.011 76.8132 46.5569 76.8148 45.0402C76.818 44.2544 76.6572 43.4765 76.3426 42.756C76.028 42.0354 75.5664 41.3879 74.9872 40.8546C76.1581 34.4416 76.1557 27.814 74.9776 20.6311C75.5597 20.0978 76.0237 19.4493 76.34 18.7272C76.6563 18.005 76.818 17.2251 76.8148 16.4372C76.8146 15.2835 76.4644 14.1568 75.8102 13.205C75.1559 12.2532 74.2282 11.5206 73.1487 11.1036C72.0692 10.6865 70.8884 10.6044 69.7612 10.868C68.6341 11.1315 67.6132 11.7285 66.8326 12.5806C53.7408 11.3721 40.5649 11.3721 27.4732 12.5806C26.6925 11.7285 25.6717 11.1315 24.5445 10.868C23.4173 10.6044 22.2365 10.6865 21.157 11.1036C20.0775 11.5206 19.1498 12.2532 18.4955 13.205C17.8413 14.1568 17.4911 15.2835 17.491 16.4372C17.4877 17.2188 17.6466 17.9926 17.9579 18.71C18.2691 19.4274 18.7258 20.073 19.2994 20.6061C18.1404 25.9453 18.1536 32.4072 19.3389 40.8356C18.4898 41.6161 17.8968 42.6337 17.6373 43.7553C17.3779 44.877 17.464 46.0506 17.8845 47.1227C18.3051 48.1948 19.0404 49.1156 19.9944 49.7646C20.9484 50.4137 22.0768 50.7609 23.232 50.7608C24.0306 50.7639 24.8209 50.5995 25.5515 50.2783C26.2822 49.9572 26.9369 49.4865 27.4732 48.8969C29.0687 49.0446 30.671 49.1745 32.2801 49.2866L31.7849 49.4022C28.259 50.2293 25.776 52.8047 25.2509 56.0834C22.9581 56.199 20.6693 56.3324 18.3844 56.4838C18.1422 56.4998 17.9152 56.607 17.7493 56.7836C17.5834 56.9602 17.491 57.193 17.491 57.4349V68.8761C17.491 69.1289 17.5918 69.3714 17.7712 69.5502C17.9507 69.7291 18.194 69.8295 18.4478 69.8295C18.7016 69.8295 18.9449 69.7291 19.1244 69.5502C19.3038 69.3714 19.4046 69.1289 19.4046 68.8761V58.3275C37.8844 57.1429 56.4214 57.1429 74.9011 58.3275V68.8761C74.9011 69.1289 75.0019 69.3714 75.1813 69.5502C75.3608 69.7291 75.6042 69.8295 75.8579 69.8295C76.1117 69.8295 76.3551 69.7291 76.5345 69.5502C76.714 69.3714 76.8148 69.1289 76.8148 68.8761V57.4349C76.8147 57.193 76.7224 56.9602 76.5565 56.7836C76.3906 56.607 76.1635 56.4998 75.9213 56.4838C73.6369 56.3313 71.348 56.1978 69.0548 56.0834C68.5298 52.8047 66.0468 50.2293 62.5208 49.4022L62.0257 49.2866C63.632 49.1745 65.2343 49.0446 66.8326 48.8969C67.3688 49.4865 68.0235 49.9572 68.7542 50.2783C69.4849 50.5995 70.2752 50.7639 71.0738 50.7608V50.7608ZM62.0831 51.259C64.6809 51.868 66.5503 53.6712 67.0873 55.988C53.828 55.3814 40.4777 55.3814 27.2184 55.988C27.7554 53.6712 29.6248 51.868 32.2226 51.259L39.0712 49.6525C39.9622 49.687 40.8473 49.7156 41.7156 49.7371C42.1008 50.8695 42.8325 51.8533 43.8077 52.55C44.783 53.2467 45.9528 53.6214 47.1529 53.6214C48.3529 53.6214 49.5227 53.2467 50.498 52.55C51.4733 51.8533 52.2049 50.8695 52.5901 49.7371C53.4584 49.7156 54.3447 49.687 55.2345 49.6525L62.0831 51.259ZM35.6708 27.8784V25.0181C35.6735 22.7431 36.5816 20.562 38.196 18.9534C39.8104 17.3447 41.9992 16.4398 44.2824 16.4372H50.0234C52.3065 16.4398 54.4953 17.3447 56.1097 18.9534C57.7241 20.562 58.6323 22.7431 58.6349 25.0181V27.8784H57.6781V25.3458C57.7375 25.204 57.7634 25.0505 57.7536 24.8971C57.7439 24.7438 57.6988 24.5947 57.6218 24.4615C57.6027 24.4305 57.147 23.7059 56.2751 24.1481C56.2105 24.1815 56.1172 24.2303 55.9988 24.2947C55.7787 24.4127 55.4666 24.5843 55.0934 24.7893C54.2143 25.2731 52.1428 26.4125 50.6322 27.1669L50.9312 26.2731C50.9874 26.1051 50.9956 25.9248 50.9547 25.7524C50.9139 25.5801 50.8257 25.4225 50.7001 25.2972C50.5744 25.172 50.4162 25.0842 50.2433 25.0435C50.0703 25.0028 49.8894 25.0109 49.7208 25.067C49.6359 25.0956 41.2121 27.8784 37.5845 27.8784H35.6708ZM36.6277 29.7853V35.5059H35.6708C35.4172 35.5055 35.174 35.405 34.9946 35.2262C34.8153 35.0475 34.7144 34.8052 34.714 34.5524V30.7387C34.7144 30.4859 34.8153 30.2436 34.9946 30.0649C35.174 29.8862 35.4172 29.7856 35.6708 29.7853H36.6277ZM59.5917 30.7387V34.5524C59.5914 34.8052 59.4905 35.0475 59.3111 35.2262C59.1317 35.405 58.8886 35.5055 58.6349 35.5059H57.6781V29.7853H58.6349C58.8886 29.7856 59.1317 29.8862 59.3111 30.0649C59.4905 30.2436 59.5914 30.4859 59.5917 30.7387V30.7387ZM38.5413 29.74C41.5195 29.4861 46.0286 28.2085 48.5211 27.447L48.1587 28.5303C48.1108 28.6736 48.0977 28.8263 48.1206 28.9756C48.1434 29.125 48.2016 29.2668 48.2903 29.3893C48.3789 29.5119 48.4955 29.6117 48.6305 29.6805C48.7655 29.7494 48.9149 29.7853 49.0665 29.7853C49.6681 29.7853 50.8355 29.3038 55.7644 26.5984V36.4593C55.7644 38.7351 54.8571 40.9177 53.2421 42.5269C51.6272 44.1362 49.4368 45.0402 47.1529 45.0402C44.8689 45.0402 42.6786 44.1362 41.0636 42.5269C39.4486 40.9177 38.5413 38.7351 38.5413 36.4593V29.74ZM50.9802 46.2296V47.9005C50.9804 48.1429 50.9571 48.3848 50.9108 48.6227C50.9106 48.6248 50.9102 48.6267 50.9096 48.6287V48.6299C50.7395 49.499 50.2712 50.2821 49.585 50.8447C48.8988 51.4074 48.0375 51.7146 47.1488 51.7136C46.2602 51.7126 45.3995 51.4035 44.7146 50.8393C44.0296 50.2751 43.5631 49.4911 43.3949 48.6215C43.3485 48.384 43.3253 48.1425 43.3255 47.9005V46.2296C45.7868 47.1862 48.5189 47.1862 50.9802 46.2296ZM55.4187 47.7372L52.8939 47.1449V45.2452C54.2258 44.3806 55.3441 43.2269 56.165 41.8704C56.9858 40.514 57.488 38.99 57.6338 37.4127H58.6349C59.3959 37.4117 60.1254 37.1101 60.6635 36.5739C61.2016 36.0377 61.5044 35.3107 61.5054 34.5524V30.7387C61.5056 30.3366 61.4204 29.9389 61.2555 29.5719C61.0906 29.2049 60.8497 28.8767 60.5486 28.609V25.0181C60.5454 22.2375 59.4355 19.5718 57.4623 17.6056C55.4891 15.6394 52.8139 14.5335 50.0234 14.5303H44.2824C41.4919 14.5335 38.8166 15.6394 36.8434 17.6056C34.8703 19.5718 33.7603 22.2375 33.7572 25.0181V28.609C33.456 28.8767 33.2151 29.2049 33.0502 29.5719C32.8853 29.9389 32.8002 30.3366 32.8003 30.7387V34.5524C32.8013 35.3107 33.1041 36.0377 33.6422 36.5739C34.1803 37.1101 34.9098 37.4117 35.6708 37.4127H36.6719C36.8177 38.99 37.3199 40.514 38.1408 41.8704C38.9616 43.2269 40.0799 44.3806 41.4119 45.2452V47.1449L38.887 47.7372C34.9855 47.5847 31.0374 47.3213 27.1502 46.9519C26.9873 46.9361 26.8231 46.9623 26.6733 47.0281C26.5236 47.0938 26.3933 47.1968 26.295 47.3273C25.966 47.7644 25.5466 48.126 25.0651 48.3875C24.5837 48.649 24.0515 48.8044 23.5045 48.8432C22.9575 48.8819 22.4086 48.8031 21.8948 48.612C21.3811 48.4209 20.9146 48.1221 20.5268 47.7357C20.1391 47.3494 19.8392 46.8845 19.6474 46.3726C19.4557 45.8607 19.3766 45.3137 19.4155 44.7687C19.4543 44.2236 19.6103 43.6933 19.8728 43.2136C20.1352 42.7338 20.4981 42.3159 20.9368 41.988C21.0739 41.8854 21.1807 41.748 21.2462 41.5901C21.3116 41.4322 21.3332 41.2597 21.3087 41.0906C20.0397 32.3405 20.035 25.788 21.2932 20.4702C21.3361 20.2899 21.3252 20.101 21.2619 19.9268C21.1986 19.7526 21.0856 19.6005 20.9368 19.4894C20.4981 19.1615 20.1352 18.7436 19.8728 18.2638C19.6103 17.7841 19.4543 17.2538 19.4155 16.7087C19.3766 16.1637 19.4557 15.6167 19.6474 15.1048C19.8392 14.5929 20.1391 14.128 20.5268 13.7417C20.9146 13.3553 21.3811 13.0565 21.8948 12.8654C22.4086 12.6743 22.9575 12.5955 23.5045 12.6342C24.0515 12.673 24.5837 12.8284 25.0651 13.0899C25.5466 13.3514 25.966 13.713 26.295 14.1501C26.3933 14.2806 26.5236 14.3836 26.6733 14.4494C26.8231 14.5151 26.9873 14.5413 27.1502 14.5256C40.4554 13.2658 53.8504 13.2658 67.1555 14.5256C67.3184 14.5413 67.4826 14.5151 67.6324 14.4494C67.7822 14.3836 67.9124 14.2806 68.0107 14.1501C68.3397 13.713 68.7591 13.3514 69.2406 13.0899C69.722 12.8284 70.2543 12.673 70.8012 12.6342C71.3482 12.5955 71.8972 12.6743 72.4109 12.8654C72.9246 13.0565 73.3912 13.3553 73.7789 13.7417C74.1666 14.128 74.4665 14.5929 74.6583 15.1048C74.85 15.6167 74.9291 16.1637 74.8903 16.7087C74.8514 17.2538 74.6954 17.7841 74.433 18.2638C74.1705 18.7436 73.8076 19.1615 73.369 19.4894C73.2286 19.5947 73.12 19.7365 73.055 19.8991C72.99 20.0618 72.9712 20.2392 73.0006 20.4118C74.2636 27.7807 74.2648 34.5298 73.0042 41.0465C72.9706 41.2217 72.987 41.4028 73.0514 41.5693C73.1159 41.7357 73.2259 41.8808 73.369 41.988C73.8076 42.3159 74.1705 42.7338 74.433 43.2136C74.6954 43.6933 74.8514 44.2236 74.8903 44.7687C74.9291 45.3137 74.85 45.8607 74.6583 46.3726C74.4665 46.8845 74.1666 47.3494 73.7789 47.7357C73.3912 48.1221 72.9246 48.4209 72.4109 48.612C71.8972 48.8031 71.3482 48.8819 70.8012 48.8432C70.2543 48.8044 69.722 48.649 69.2406 48.3875C68.7591 48.126 68.3397 47.7644 68.0107 47.3273C67.9124 47.1969 67.7821 47.094 67.6323 47.0282C67.4826 46.9625 67.3184 46.9362 67.1555 46.9519C63.2684 47.3213 59.3202 47.5847 55.4187 47.7372Z" fill="#116751"/>
<path d="M43.6643 38.9164C44.2584 39.7533 45.5945 40.273 47.1528 40.273C48.7112 40.273 50.0473 39.7533 50.6414 38.9164C50.7157 38.8143 50.769 38.6984 50.7981 38.5756C50.8272 38.4528 50.8315 38.3254 50.8109 38.2009C50.7902 38.0764 50.7449 37.9572 50.6777 37.8503C50.6104 37.7434 50.5225 37.6508 50.4191 37.5779C50.3157 37.5051 50.1988 37.4535 50.0752 37.426C49.9516 37.3985 49.8237 37.3958 49.699 37.4179C49.5743 37.44 49.4553 37.4866 49.3488 37.5549C49.2423 37.6232 49.1505 37.712 49.0787 37.8159C48.9564 37.9882 48.3013 38.3662 47.1531 38.3662C46.0049 38.3662 45.3496 37.9882 45.2275 37.8159C45.1556 37.712 45.0638 37.6232 44.9573 37.5549C44.8509 37.4866 44.7318 37.44 44.6072 37.4179C44.4825 37.3958 44.3546 37.3985 44.231 37.426C44.1074 37.4535 43.9905 37.5051 43.8871 37.5779C43.7836 37.6508 43.6958 37.7434 43.6285 37.8503C43.5613 37.9572 43.516 38.0764 43.4953 38.2009C43.4746 38.3254 43.479 38.4528 43.5081 38.5756C43.5372 38.6984 43.5905 38.8143 43.6648 38.9164H43.6643Z" fill="#116751"/>
<path d="M11.1759 2.92845C40.1256 0.108074 57.8647 0.608629 82.7114 2.96268C87.4186 3.40866 91.1473 7.14031 91.5685 11.8445C93.4519 32.8825 93.4938 47.5648 91.5934 68.3209C91.1635 73.0155 87.4264 76.7297 82.7253 77.1551C56.2004 79.5556 38.1113 79.6639 11.2921 77.1833C6.58521 76.748 2.85767 73.0062 2.44011 68.2976C0.619796 47.771 0.435322 33.1179 2.40414 11.7263C2.8323 7.07426 6.52101 3.38195 11.1759 2.92845Z" stroke="#116751" stroke-width="2"/>
</svg>
