<svg width="94" height="80" viewBox="0 0 94 80" fill="none" xmlns="http://www.w3.org/2000/svg">
<g clip-path="url(#clip0)">
<path d="M37.7582 26.8864C31.5348 26.8864 26.4903 31.913 26.4903 38.1137C26.4903 44.3144 31.5348 49.3415 37.7576 49.3415C43.981 49.3415 49.0255 44.3144 49.0255 38.1137C49.0183 31.9158 43.9777 26.8936 37.7582 26.8864V26.8864ZM37.7582 47.0863C32.7849 47.0869 28.753 43.0693 28.753 38.1137C28.753 33.1581 32.7844 29.141 37.7576 29.141C42.7309 29.141 46.7629 33.1581 46.7629 38.1137C46.7568 43.0665 42.7287 47.0803 37.7582 47.0858V47.0863Z" fill="#116751"/>
<path d="M41.4322 34.2381C40.1932 33.298 38.8116 32.845 37.4328 32.9303C34.8106 33.0938 32.7208 35.1766 32.5568 37.7895C32.4717 39.1618 32.9258 40.5395 33.8693 41.7741C33.9306 41.8551 34.003 41.9266 34.0836 41.9883C35.2249 42.8541 36.4877 43.306 37.756 43.306C37.8648 43.306 37.9742 43.3027 38.083 43.2961C40.7052 43.1326 42.795 41.0498 42.9596 38.4374C43.0441 37.0646 42.5906 35.6869 41.6465 34.4522C41.5852 34.3713 41.5128 34.2998 41.4322 34.2381ZM39.8429 40.1905C38.9867 41.0443 37.3665 41.565 35.5779 40.2852C34.2935 38.5034 34.8167 36.8896 35.6729 36.0358C36.5291 35.1821 38.1487 34.6614 39.938 35.9412C41.2223 37.7224 40.6997 39.3374 39.8429 40.1905Z" fill="#116751"/>
<path d="M80.3852 32.3115C81.01 32.3115 81.4458 31.831 81.4458 31.2085V25.2902C81.4458 24.6676 81.01 24.1387 80.3852 24.1387H79.6074V18.3129C79.6074 14.9998 77.0747 12.3021 73.8741 12.3021H18.7346C15.534 12.3021 12.8599 14.9998 12.8599 18.3129V57.9134C12.8599 61.2265 15.534 63.8758 18.7346 63.8758H19.9306V66.9758C19.9306 67.5984 20.4371 68.1031 21.0619 68.1031H35.2033C35.8281 68.1031 36.3346 67.5984 36.3346 66.9758V63.8758H56.6983V66.9758C56.6983 67.5984 57.2049 68.1031 57.8296 68.1031H71.9711C72.5958 68.1031 73.1024 67.5984 73.1024 66.9758V63.8758H73.8741C77.0747 63.8758 79.6074 61.2265 79.6074 57.9134V52.0392H80.3852C81.01 52.0392 81.4458 51.5586 81.4458 50.9361V45.0178C81.4458 44.3953 81.01 43.8663 80.3852 43.8663H79.6074V32.3115H80.3852ZM79.1832 46.1209V49.7846H71.6882V46.1209H79.1832ZM70.5569 43.8663C69.9272 43.8779 69.4239 44.3903 69.4256 45.0178V50.9361C69.4267 51.2328 69.5471 51.5163 69.7593 51.7238C69.9719 51.9307 70.2592 52.0447 70.5569 52.0392H71.1226V53.8452C71.1226 54.5695 70.6442 55.1392 69.9802 55.1392H22.6285C21.964 55.1392 21.4861 54.5695 21.4861 53.8452V22.3811C21.4861 21.6568 21.9645 21.0386 22.6285 21.0386H69.9802C70.6447 21.0386 71.1226 21.6568 71.1226 22.3811V24.1387H70.5569C69.9272 24.1502 69.4239 24.6627 69.4256 25.2902V31.2085C69.4267 31.5052 69.5471 31.7886 69.7593 31.9961C69.9719 32.2031 70.2592 32.3171 70.5569 32.3115H71.1226V43.8663H70.5569ZM71.6882 30.057V26.3933H79.1832V30.057H71.6882ZM34.072 65.8485H22.1932V63.8758H34.072V65.8485ZM70.8397 65.8485H58.9609V63.8758H70.8397V65.8485ZM77.3448 57.9134C77.3448 59.9836 75.8268 61.6212 73.8741 61.6212H18.7346C16.7819 61.6212 15.1225 59.9836 15.1225 57.9134V18.3129C15.1225 16.2427 16.7819 14.5567 18.7346 14.5567H73.8741C75.8268 14.5567 77.3448 16.2427 77.3448 18.3129V24.1387H73.3852V22.3811C73.3852 20.4133 71.8921 18.784 69.9802 18.784H22.6285C20.7166 18.784 19.2235 20.4133 19.2235 22.3811V53.8452C19.2235 55.813 20.7166 57.3938 22.6285 57.3938H69.9802C71.8921 57.3938 73.3852 55.813 73.3852 53.8452V52.0392H77.3448V57.9134ZM77.3448 43.8663H73.3852V32.3115H77.3448V43.8663Z" fill="#116751"/>
</g>
<path d="M11.1759 2.92845C40.1256 0.108074 57.8647 0.608629 82.7114 2.96268C87.4186 3.40866 91.1473 7.14031 91.5685 11.8445C93.4519 32.8825 93.4938 47.5648 91.5934 68.3209C91.1635 73.0155 87.4264 76.7297 82.7253 77.1551C56.2004 79.5556 38.1113 79.6639 11.2921 77.1833C6.58521 76.748 2.85767 73.0062 2.44011 68.2976C0.619796 47.771 0.435322 33.1179 2.40414 11.7263C2.8323 7.07426 6.52101 3.38195 11.1759 2.92845Z" stroke="#116751" stroke-width="2"/>
<defs>
<clipPath id="clip0">
<rect width="68.586" height="68.3422" fill="white" transform="translate(12.8599 6.10199)"/>
</clipPath>
</defs>
</svg>
