<svg width="94" height="80" viewBox="0 0 94 80" fill="none" xmlns="http://www.w3.org/2000/svg">
<g clip-path="url(#clip0)">
<path d="M74.5647 24.4039H69.0671C64.0568 17.2634 55.9179 13.0229 47.1528 13.0229C38.3861 13.0229 30.2489 17.2634 25.2369 24.4039H19.741C13.5835 24.4039 8.57324 29.3963 8.57324 35.532V43.7937C8.57324 49.9293 13.5835 54.9218 19.741 54.9218H25.2369C30.2489 62.0623 38.3861 66.3028 47.1528 66.3028C55.9179 66.3028 64.0568 62.0623 69.0671 54.9218H74.5647C80.7222 54.9218 85.7325 49.9293 85.7325 43.7937V35.532C85.7325 29.3963 80.7222 24.4039 74.5647 24.4039ZM24.5635 52.1684C24.4298 52.1684 24.2995 52.1887 24.1777 52.2241H19.741C15.0759 52.2241 11.2806 48.4422 11.2806 43.7937V35.532C11.2806 30.8835 15.0759 27.1016 19.741 27.1016H25.9544C26.4078 27.1016 26.8326 26.874 27.083 26.4963C31.5518 19.7486 39.0545 15.7206 47.1528 15.7206C54.4119 15.7206 61.1904 18.9579 65.7354 24.4882H54.4001C50.2798 24.4882 46.9261 27.8283 46.9261 31.9356V47.4188C46.9261 50.0373 44.789 52.1684 42.1612 52.1684H24.5635ZM83.0251 43.7937C83.0251 48.4422 79.2298 52.2241 74.5647 52.2241H68.3513C67.8962 52.2241 67.4714 52.4517 67.221 52.8294C62.7539 59.5771 55.2512 63.6051 47.1528 63.6051C39.9056 63.6051 33.139 60.3779 28.594 54.8662H42.1612C46.2814 54.8662 49.6334 51.5244 49.6334 47.4188V31.9356C49.6334 29.3171 51.7722 27.1859 54.4001 27.1859H69.0925C69.2583 27.1859 69.414 27.1556 69.5612 27.1016H74.5647C79.2298 27.1016 83.0251 30.8835 83.0251 35.532V43.7937Z" fill="#116751"/>
<path d="M70.9267 37.4709C70.1788 37.4709 69.573 38.0746 69.573 38.8198V46.913C69.573 47.6582 70.1788 48.2618 70.9267 48.2618C71.6746 48.2618 72.2803 47.6582 72.2803 46.913V38.8198C72.2803 38.0746 71.6746 37.4709 70.9267 37.4709Z" fill="#116751"/>
<path d="M70.9267 33.2558C70.1788 33.2558 69.573 33.8594 69.573 34.6046V34.9418C69.573 35.6871 70.1788 36.2907 70.9267 36.2907C71.6746 36.2907 72.2803 35.6871 72.2803 34.9418V34.6046C72.2803 33.8594 71.6746 33.2558 70.9267 33.2558Z" fill="#116751"/>
<path d="M64.666 35.6163C65.4139 35.6163 66.0196 35.0127 66.0196 34.2674C66.0196 33.5222 65.4139 32.9185 64.666 32.9185H58.0668C57.4695 32.9185 56.9636 33.3047 56.7842 33.8375C56.6319 34.0566 56.5439 34.3197 56.5439 34.6046V46.7444C56.5439 47.4896 57.1497 48.0932 57.8976 48.0932C58.6455 48.0932 59.2513 47.4896 59.2513 46.7444V41.8547H64.666C65.4139 41.8547 66.0196 41.2511 66.0196 40.5059C66.0196 39.7606 65.4139 39.157 64.666 39.157H59.2513V35.6163H64.666Z" fill="#116751"/>
<path d="M33.1615 33.2912C32.4332 33.1229 31.7056 33.5736 31.536 34.2991L29.978 40.9662L28.4199 34.2991L28.4187 34.2994C28.3052 33.8152 27.9275 33.4119 27.4085 33.2913C26.6801 33.1231 25.9527 33.5738 25.7831 34.2993L24.225 40.9663L22.667 34.2993C22.4974 33.5736 21.7695 33.1226 21.0415 33.2913C20.3134 33.4605 19.8606 34.1856 20.0302 34.911L22.9067 47.2193C23.0523 47.842 23.6088 48.2626 24.224 48.2626C24.3257 48.2626 24.4289 48.2512 24.5322 48.2272C25.0511 48.1067 25.4286 47.7034 25.5423 47.2191L25.5435 47.2195L27.1016 40.5524L28.6597 47.2195C28.8052 47.8421 29.3617 48.2628 29.977 48.2628C30.0787 48.2628 30.1819 48.2513 30.2851 48.2274C30.804 48.1069 31.1816 47.7035 31.2953 47.2193L31.2964 47.2196L34.173 34.9113C34.3424 34.1855 33.8896 33.4603 33.1615 33.2912Z" fill="#116751"/>
<path d="M38.7768 37.4713C38.0293 37.4713 37.4232 38.0752 37.4232 38.8201V46.9133C37.4232 47.6582 38.0293 48.2621 38.7768 48.2621C39.5244 48.2621 40.1305 47.6582 40.1305 46.9133V38.8201C40.1305 38.0752 39.5244 37.4713 38.7768 37.4713Z" fill="#116751"/>
<path d="M38.7768 33.2561C38.0293 33.2561 37.4232 33.86 37.4232 34.6049V34.9421C37.4232 35.687 38.0293 36.291 38.7768 36.291C39.5244 36.291 40.1305 35.687 40.1305 34.9421V34.6049C40.1305 33.86 39.5244 33.2561 38.7768 33.2561Z" fill="#116751"/>
</g>
<path d="M11.1759 2.92845C40.1256 0.108074 57.8647 0.608629 82.7114 2.96268C87.4186 3.40866 91.1473 7.14031 91.5685 11.8445C93.4519 32.8825 93.4938 47.5648 91.5934 68.3209C91.1635 73.0155 87.4264 76.7297 82.7253 77.1551C56.2004 79.5556 38.1113 79.6639 11.2921 77.1833C6.58521 76.748 2.85767 73.0062 2.44011 68.2976C0.619796 47.771 0.435322 33.1179 2.40414 11.7263C2.8323 7.07426 6.52101 3.38195 11.1759 2.92845Z" stroke="#116751" stroke-width="2"/>
<defs>
<clipPath id="clip0">
<rect width="77.1592" height="76.8849" fill="white" transform="translate(8.57324 1.2204)"/>
</clipPath>
</defs>
</svg>
